HIERARCHY
ROOT Hip
{
  OFFSET 0.0 0.0 0.0
  CHANNELS 6 Xposition Yposition Zposition Xrotation Yrotation Zrotation
  JOINT LowerSpine
  {
    OFFSET 0.0 0.061367 -0.03653
    CHANNELS 3 Xrotation Yrotation Zrotation
    JOINT MiddleSpine
    {
      OFFSET 0.0 0.056002 0.002633
      CHANNELS 3 Xrotation Yrotation Zrotation
      JOINT Chest
      {
        OFFSET 0.0 0.069296 -0.013882
        CHANNELS 3 Xrotation Yrotation Zrotation
        JOINT Neck
        {
          OFFSET 0.0 0.156156 -0.002923
          CHANNELS 3 Xrotation Yrotation Zrotation
          JOINT Head
          {
            OFFSET 0.0 0.088183 0.023986
            CHANNELS 3 Xrotation Yrotation Zrotation
            End Site
            {
              OFFSET 1e-06 0.123215 0.003678
            }
          }
        }
        JOINT LClavicle
        {
          OFFSET 0.014189 0.150698 0.046467
          CHANNELS 3 Xrotation Yrotation Zrotation
          JOINT LShoulder
          {
            OFFSET 0.082893 0.021616 -0.034976
            CHANNELS 3 Xrotation Yrotation Zrotation
            JOINT LForearm
            {
              OFFSET 0.195645 -0.000695 -0.001695
              CHANNELS 3 Xrotation Yrotation Zrotation
              JOINT LHand
              {
                OFFSET 0.163209 0.000474 -0.000977
                CHANNELS 3 Xrotation Yrotation Zrotation
                End Site
                {
                  OFFSET 0.0 0.006864 0.0
                }
              }
            }
          }
        }
        JOINT RClavicle
        {
          OFFSET -0.014189 0.150698 0.046467
          CHANNELS 3 Xrotation Yrotation Zrotation
          JOINT RShoulder
          {
            OFFSET -0.082908 0.021619 -0.034982
            CHANNELS 3 Xrotation Yrotation Zrotation
            JOINT RForearm
            {
              OFFSET -0.195645 -0.000695 -0.001695
              CHANNELS 3 Xrotation Yrotation Zrotation
              JOINT RHand
              {
                OFFSET -0.163209 0.000474 -0.000977
                CHANNELS 3 Xrotation Yrotation Zrotation
                End Site
                {
                  OFFSET 0.0 0.006864 0.0
                }
              }
            }
          }
        }
      }
    }
  }
  JOINT RThigh
  {
    OFFSET -0.072558 0.02774 -0.005953
    CHANNELS 3 Xrotation Yrotation Zrotation
    JOINT RShin
    {
      OFFSET -0.005253 -0.285537 0.0
      CHANNELS 3 Xrotation Yrotation Zrotation
      JOINT RFoot
      {
        OFFSET 0.0 -0.28038 0.0
        CHANNELS 3 Xrotation Yrotation Zrotation
        JOINT RToe
        {
          OFFSET 0.0 -0.030816 0.064441
          CHANNELS 3 Xrotation Yrotation Zrotation
          End Site
          {
            OFFSET 0.0 0.0 0.043231
          }
        }
      }
    }
  }
  JOINT LThigh
  {
    OFFSET 0.072557 0.027741 -0.005953
    CHANNELS 3 Xrotation Yrotation Zrotation
    JOINT LShin
    {
      OFFSET 0.005253 -0.285539 0.0
      CHANNELS 3 Xrotation Yrotation Zrotation
      JOINT LFoot
      {
        OFFSET 0.0 -0.28038 0.0
        CHANNELS 3 Xrotation Yrotation Zrotation
        JOINT LToe
        {
          OFFSET 0.0 -0.030816 0.064441
          CHANNELS 3 Xrotation Yrotation Zrotation
          End Site
          {
            OFFSET 0.0 0.0 0.043231
          }
        }
      }
    }
  }
}
MOTION
Frames: 16
Frame Time: 0.03333333333333333
0.016969 0.583211 -0.014812 -0.404572 -2.85107 0.243335 0.091406 0.135578 -0.214427 0.928006 1.666467 -0.557505 -0.711863 2.923358 -2.385015 -1.318218 0.086655 -0.013043 0.029243 0.035186 0.028732 -0.593847 -0.964322 -10.55505 21.53507 -25.525063 -48.08783 11.691264 -32.962151 -0.332286 0.129011 0.171761 -0.087946 -0.567061 0.551171 9.98458 17.6994 27.96446 50.829514 4.44861 47.767426 -0.850228 0.184578 -0.299473 0.015622 -4.61042 1.174634 -0.621658 5.858859 0.300823 0.840666 -2.222316 2.271894 1.026525 0.233583 0.595402 0.06674 3.182468 8.510599 8.221167 4.718444 8.980974 -4.650928 -2.64431 0.905187 0.481081 0.074565 -0.143306 -0.048816 
0.016171 0.577577 -0.014224 -1.756919 -4.005522 0.48114 0.023734 0.218182 0.645022 0.487842 1.374391 -0.281693 0.479101 3.806905 -3.204616 -0.638819 0.124183 -0.397121 0.033639 -0.219634 -0.04199 -1.079867 -1.604101 -11.817405 22.227081 -23.512753 -48.346436 11.04815 -30.241791 1.397072 0.098365 0.127545 -0.093074 -1.326618 1.485466 9.736929 16.813242 24.125345 48.498211 3.241878 60.911266 0.143732 -0.139576 -0.175342 -0.004513 -2.586865 1.834432 -1.041375 6.039042 1.831495 -0.400752 -0.929463 2.077275 0.847504 -0.01062 0.250182 0.101596 6.708178 10.165028 7.094679 2.331949 8.258994 -4.131691 -2.372054 0.751857 0.838107 0.110205 -0.203351 -0.06665 
0.012201 0.57379 -0.015754 -2.509504 -0.746101 0.893115 0.114705 0.204706 0.576437 0.407941 1.268418 -0.32631 1.411708 3.321571 -3.186114 -0.380421 0.085071 -0.315797 0.019793 -0.215663 -0.038473 -1.312924 -1.751551 -11.975336 22.149179 -21.915426 -48.576893 10.143443 -29.703896 1.39241 0.041621 0.077044 -0.012567 -1.443529 2.249933 9.781144 16.329592 23.320797 48.056824 0.473948 66.057541 2.598422 -0.144719 -0.122074 -0.00459 -1.817802 1.50999 -1.949835 5.127477 1.943083 -0.391265 -1.251296 2.011884 0.793501 0.004393 0.099826 0.063408 6.414301 9.095309 6.58396 2.203398 7.249366 -3.668777 -2.490448 0.6372 0.763026 0.085123 -0.105357 -0.035848 
0.007408 0.570697 -0.016367 -3.021041 0.763916 1.138382 0.351115 0.130046 0.535581 0.450615 1.313416 -0.330925 1.771372 3.82839 -3.405294 -0.096305 0.125788 -0.225784 0.016348 -0.252589 -0.041009 -1.337528 -1.848418 -11.736965 21.69305 -22.122042 -48.556015 9.792159 -28.291557 1.205705 0.033918 0.077909 0.001579 -1.546209 2.443307 9.881309 14.881055 25.245602 48.802204 0.931368 62.969078 3.575982 -0.169974 -0.098895 -0.008634 -1.806572 1.77758 -2.07376 5.692532 2.138539 -0.392929 -1.55796 1.778059 0.640764 -0.022964 0.06973 0.059503 6.145242 9.510804 6.553726 2.189264 7.062474 -3.594906 -2.679589 0.536672 0.735512 0.079099 -0.08626 -0.036137 
0.008078 0.568823 -0.017199 -3.601792 1.191985 1.277067 0.579008 0.049676 0.54237 0.477047 1.407984 -0.245356 2.066934 4.737813 -3.314102 0.093677 0.169401 -0.148956 0.01526 -0.296783 -0.042641 -1.344572 -1.962252 -11.404156 21.08606 -22.899027 -48.635242 9.555325 -27.436661 1.086008 0.040513 0.092127 -0.003557 -1.696709 2.572879 9.908257 13.280126 27.442762 49.601543 2.358609 56.75317 3.748712 -0.208386 -0.081921 -0.013407 -1.604974 2.131733 -2.16134 6.52755 2.317839 -0.411629 -1.878776 1.561475 0.48065 -0.050564 0.080582 0.070452 6.384033 9.95029 6.35483 1.635917 6.767906 -3.6241 -2.886096 0.36038 0.713058 0.084084 -0.095734 -0.043028 
0.011016 0.568199 -0.017563 -4.035266 1.565221 1.126611 0.766448 -0.014651 0.495021 0.539277 1.513452 -0.130409 2.241621 5.573256 -2.767347 0.156336 0.184946 -0.096583 0.011911 -0.294861 -0.0402 -1.318879 -2.021536 -11.136566 20.23407 -23.446388 -48.774105 9.207613 -26.921522 0.943527 0.046064 0.098971 -0.011451 -1.741881 2.507752 9.905844 11.320098 28.837589 50.080853 2.576669 51.025021 3.534335 -0.207887 -0.080574 -0.013767 -1.240876 2.492709 -2.256707 6.756721 2.478916 -0.277359 -2.217777 1.444502 0.388735 -0.059921 0.100768 0.075551 6.987793 9.824545 5.854065 0.932043 6.136946 -3.390338 -3.159537 0.278934 0.678852 0.082192 -0.101765 -0.044743 
0.014652 0.567866 -0.017529 -4.140068 2.259686 0.884385 0.913909 -0.068451 0.410247 0.600352 1.618278 0.006928 2.281012 6.322853 -1.898035 0.140032 0.183354 -0.075147 0.008459 -0.267766 -0.036515 -1.283253 -2.013728 -10.943568 19.348911 -23.612265 -49.026138 8.681762 -26.633629 0.732613 0.050136 0.103465 -0.019506 -1.728299 2.332606 9.86752 9.349327 29.345747 50.226574 1.905682 47.019184 3.17977 -0.181404 -0.092267 -0.010638 -0.839733 2.760528 -2.353181 6.57516 2.576937 -0.053267 -2.536356 1.38588 0.335829 -0.049527 0.130391 0.074529 7.65728 9.147443 5.109705 0.028467 5.259803 -2.939561 -3.410932 0.237527 0.638579 0.079314 -0.103349 -0.042094 
0.017966 0.56763 -0.017499 -3.951865 3.320508 0.594103 1.032814 -0.132691 0.270489 0.652435 1.731256 0.146094 2.269222 7.055999 -0.750376 0.090195 0.182279 -0.080891 0.003992 -0.21762 -0.032697 -1.208997 -1.930795 -10.770788 18.430792 -23.604506 -49.41708 8.167555 -26.734066 0.44816 0.050819 0.104859 -0.025907 -1.668989 2.080986 9.782439 6.979069 29.20533 50.344654 0.464393 43.961681 2.675243 -0.13198 -0.110383 -0.005176 -0.607112 2.757088 -2.451375 6.198074 2.491173 0.273031 -2.890552 1.348801 0.306104 -0.023607 0.166441 0.068818 7.929334 8.19816 4.331225 -0.828777 4.305172 -2.284396 -3.557067 0.199879 0.580183 0.071793 -0.097698 -0.034992 
0.019279 0.567932 -0.01598 -3.494656 4.804352 0.488396 1.078478 -0.168479 0.149712 0.726718 1.825069 0.20783 2.366069 7.699033 0.180241 0.044147 0.176371 -0.09771 -0.001332 -0.165861 -0.029206 -1.13246 -1.783922 -10.677261 17.916426 -23.299498 -49.587986 7.913087 -27.544949 0.088767 0.046424 0.096493 -0.024714 -1.569457 1.862532 9.764302 4.791928 28.861681 50.358673 -1.157954 41.935425 2.399644 -0.078912 -0.125979 0.000984 -0.551254 2.774346 -2.610301 5.810336 2.46443 0.50933 -3.172137 1.333477 0.318696 0.000855 0.188777 0.060237 7.613317 7.69924 3.767821 -1.149846 3.862601 -1.744089 -3.506405 0.157038 0.507059 0.05998 -0.085639 -0.027696 
0.019492 0.568376 -0.0138 -2.88613 6.169176 0.516137 1.055964 -0.171983 0.071546 0.814145 1.958308 0.253428 2.637609 8.262467 0.949586 -0.005132 0.164125 -0.131302 -0.00682 -0.122544 -0.026525 -1.062267 -1.596372 -10.731098 17.768213 -23.216322 -49.819702 7.767033 -28.445292 -0.297094 0.041206 0.085726 -0.020447 -1.434654 1.715681 9.747947 2.652112 28.283634 50.356335 -3.187145 40.987652 2.246641 -0.023861 -0.145405 0.006925 -0.724486 2.897063 -2.715268 5.486354 2.482397 0.590284 -3.461287 1.316975 0.345728 0.023626 0.196865 0.050986 7.101812 7.368228 3.362551 -1.351026 3.734606 -1.297863 -3.388092 0.14998 0.448511 0.048542 -0.075299 -0.019924 
0.019454 0.568756 -0.010433 -1.758103 7.369859 0.640748 0.968078 -0.156275 0.00623 0.902002 2.117814 0.296143 2.890613 8.737463 1.686123 -0.052066 0.143178 -0.157739 -0.011816 -0.075827 -0.022031 -0.996497 -1.32115 -10.90799 17.851114 -23.354086 -50.230255 7.682275 -29.106438 -0.740551 0.034793 0.072021 -0.012849 -1.242673 1.566511 9.73689 0.574313 27.564819 50.139256 -5.560053 41.090153 2.046134 0.029972 -0.161572 0.012777 -1.353407 2.965838 -2.832623 5.417126 2.406714 0.587188 -3.79044 1.2741 0.373489 0.047225 0.193254 0.040465 6.253761 7.05296 3.013239 -1.317321 3.779267 -0.954923 -3.197713 0.187196 0.399018 0.035222 -0.062888 -0.012064 
0.020965 0.568817 -0.007868 -0.082304 8.037563 0.65005 0.866818 -0.157051 -0.061712 1.003353 2.317935 0.377113 3.284457 9.3188 2.425609 -0.076515 0.143482 -0.16548 -0.012356 -0.039208 -0.018794 -0.869248 -0.998985 -11.250581 17.649239 -23.988712 -51.124508 7.586721 -29.13216 -1.129963 0.033963 0.066091 -0.01119 -1.000449 1.282372 9.670276 -2.396221 26.765911 49.871674 -8.502444 41.572464 1.488191 0.064375 -0.174209 0.015196 -2.381461 2.869299 -2.928494 5.49732 2.053192 0.536462 -4.117615 1.186514 0.367172 0.070405 0.204641 0.040395 5.066319 6.501796 2.646314 -1.404336 3.712918 -0.585959 -3.011086 0.296204 0.396975 0.029123 -0.053847 -0.009585 
0.022868 0.568662 -0.006814 1.772533 8.399894 0.520345 0.759699 -0.201945 -0.112014 1.078783 2.473856 0.48768 3.570149 9.93405 2.967029 -0.088743 0.159275 -0.155711 -0.008059 -0.023186 -0.019847 -0.718473 -0.716367 -11.637821 17.430784 -25.015091 -52.193047 7.680333 -28.610033 -1.387433 0.039404 0.070171 -0.017117 -0.755271 0.949337 9.534274 -5.860617 26.566549 49.76796 -11.220276 41.288925 0.658855 0.086109 -0.187078 0.015606 -3.746351 2.759047 -2.880366 5.636795 1.676629 0.423608 -4.321134 1.072965 0.33506 0.087607 0.226098 0.045933 3.576692 6.107354 2.442448 -1.581719 3.750349 -0.446929 -2.844356 0.415888 0.434277 0.030496 -0.052894 -0.009507 
0.024453 0.568442 -0.006905 3.730591 8.52779 0.309854 0.690501 -0.270681 -0.163428 1.068542 2.597886 0.600635 3.681698 10.669617 3.441956 -0.069013 0.179419 -0.130566 -0.002954 -0.023089 -0.023098 -0.591524 -0.510814 -11.980342 17.279247 -26.138178 -53.428783 7.774204 -27.998377 -1.586384 0.047584 0.079401 -0.02795 -0.552029 0.67626 9.376024 -9.458797 26.558382 49.860855 -13.83374 40.196499 -0.138105 0.09333 -0.191444 0.014793 -5.377324 2.555429 -2.67003 5.748024 1.29806 0.337415 -4.50467 0.953044 0.27523 0.102844 0.24575 0.051333 1.623964 5.768385 2.479076 -1.534636 3.741308 -0.399652 -2.688406 0.50066 0.482523 0.034482 -0.057592 -0.010255 
0.026506 0.568305 -0.007217 5.992578 8.675693 0.070027 0.610453 -0.340411 -0.213898 1.038978 2.744278 0.683662 3.803402 11.457676 3.886441 -0.070522 0.193792 -0.113008 0.00285 -0.022437 -0.027944 -0.441432 -0.328002 -12.410523 17.329071 -27.383352 -54.539082 8.056023 -27.529572 -1.765309 0.055834 0.088656 -0.039481 -0.326549 0.34354 9.217484 -13.078566 26.940414 49.831882 -16.38077 38.852074 -0.950786 0.102952 -0.197625 0.014135 -7.25597 2.297831 -2.443943 5.83329 0.873624 0.285479 -4.649436 0.828199 0.215459 0.118908 0.264294 0.050922 -0.647453 5.481881 2.50573 -1.440724 3.832499 -0.455865 -2.466493 0.515531 0.507159 0.038334 -0.062177 -0.007888 
0.029535 0.568279 -0.009067 8.629397 8.938179 -0.4533 0.526542 -0.41852 -0.249034 0.999728 2.882562 0.804428 3.768676 12.25524 4.29256 -0.073926 0.22822 -0.103827 0.010832 -0.042027 -0.034995 -0.28763 -0.26062 -12.874277 17.438251 -28.763006 -55.710773 8.463471 -27.129864 -1.754479 0.070581 0.109411 -0.061022 -0.154869 -0.014473 9.023885 -16.587435 27.492878 49.706093 -18.744909 37.576099 -1.692166 0.090043 -0.20369 0.009349 -9.601996 1.958746 -2.121241 5.943603 0.32097 0.223553 -4.610792 0.693779 0.115603 0.123261 0.293772 0.058726 -3.424739 5.13262 2.587712 -1.353901 3.843492 -0.573503 -2.287126 0.468925 0.520352 0.047809 -0.077673 -0.009795 
